# xmcd CD database file generated by Grip 3.3.1
#
# Track frame offsets:
#       150
#       16731
#       28577
#       42749
#       61890
#
# Disc length: 1029 seconds
#
# Revision: 0
# Processed by: cddbd v1.5.2PL0 Copyright (c) Steve Scherf et al.
# Submitted via: Grip 3.3.1
#
DISCID=38040305
DTITLE=Andrew Morris - Long Beach
DYEAR=2009
DGENRE=Americana
TTITLE0=Miss You In The Night
TTITLE1=Other Side
TTITLE2=Wedding Song
TTITLE3=Innocent
TTITLE4=A Thousand Miles
EXTD=
EXTT0=
EXTT1=
EXTT2=
EXTT3=
EXTT4=
PLAYORDER=
